
Release info:

General
Format : Matroska
Format version : Version 2
File size : 706 MiB
Duration : 2h 18mn
Overall bit rate : 714 Kbps
Encoded date : UTC 2012-12-02 18:54:31
Writing application : mkvmerge v5.8.0 ('No Sleep / Pillow') built on Sep 2 2012 15:37:04
Writing library : libebml v1.2.3 + libmatroska v1.3.0
Video
ID : 1
Format : MPEG-4 Visual
Format profile : Advanced Simple@L5
Format settings, BVOP : Yes
Format settings, QPel : No
Format settings, GMC : No warppoints
Format settings, Matrix : Default (H.263)
Codec ID : V_MS/VFW/FOURCC / XVID
Codec ID/Hint : XviD
Duration : 2h 18mn
Bit rate : 572 Kbps
Width : 624 pixels
Height : 320 pixels
Display aspect ratio : 1.950
Frame rate mode : Constant
Frame rate : 29.970 fps
Color space : YUV
Chroma subsampling : 4:2:0
Bit depth : 8 bits
Scan type : Progressive
Compression mode : Lossy
Bits/(Pixel*Frame) : 0.096
Stream size : 565 MiB (80%)
Writing library : XviD 64
Default : Yes
Forced : No
Audio
ID : 2
Format : MPEG Audio
Format version : Version 1
Format profile : Layer 3
Mode : Joint stereo
Mode extension : MS Stereo
Muxing mode : Header stripping
Codec ID : A_MPEG/L3
Codec ID/Hint : MP3
Duration : 2h 18mn
Bit rate mode : Constant
Bit rate : 128 Kbps
Channel(s) : 2 channels
Sampling rate : 44.1 KHz
Compression mode : Lossy
Stream size : 126 MiB (18%)
Default : Yes
Forced : No
Source:
credit to original movie ripper HELLRAZ0R (Thanks)

IMDB Info:
Bond's loyalty to M is tested as her past comes back to haunt her. As MI6 comes under attack, 007 must track down and destroy the threat, no matter how personal the cost.
Director: Sam Mendes
Writers: Neal Purvis, Robert Wade, 
Stars: Daniel Craig, Javier Bardem and Naomie Harris
Genres: Action | Adventure | Crime | Thriller  
http://www.imdb.com/title/tt1074638/

Screen Shot: 
http://www.shotpix.com/images/79985774971744515607.png 
http://www.shotpix.com/images/90973203071649196961.png 
http://www.shotpix.com/images/90666547797962061353.png 
http://www.shotpix.com/images/67174986575114028970.png 
http://www.shotpix.com/images/93937304733825767865.png 
http://www.shotpix.com/images/41143142594912097057.png 
http://www.shotpix.com/images/26226117492807080856.png